Coordinates
version=1
nRows=19
nColumns=36
inDegrees=yes

Units are S.I. units (second, meters, Newtons, ...)
If the header above contains a line with 'inDegrees', this indicates whether rotational values are in degrees (yes) or radians (no).

endheader
time	pelvis_tilt	pelvis_list	pelvis_rotation	pelvis_tx	pelvis_ty	pelvis_tz	hip_flexion_r	hip_adduction_r	hip_rotation_r	knee_angle_r	knee_angle_r_beta	ankle_angle_r	subtalar_angle_r	mtp_angle_r	hip_flexion_l	hip_adduction_l	hip_rotation_l	knee_angle_l	knee_angle_l_beta	ankle_angle_l	subtalar_angle_l	mtp_angle_l	lumbar_extension	lumbar_bending	lumbar_rotation	arm_flex_r	arm_add_r	arm_rot_r	elbow_flex_r	pro_sup_r	arm_flex_l	arm_add_l	arm_rot_l	elbow_flex_l	pro_sup_l
      0.00000000	     -9.65604455	      0.44393371	    -12.34746072	     -0.04535640	      1.27017836	     -0.37198303	     11.19474880	      1.80363793	      2.74904204	      4.70900678	      0.08218767	      1.35759965	    -11.19835710	     -6.87965755	      9.10995748	     -1.57127018	      0.10515223	      4.32749297	      0.07552900	      9.33364703	     -2.61139715	     -6.87965755	      3.01569677	      1.10182518	     -4.42680577	     -3.09817797	    -14.42630707	     14.02826821	     28.64528997	     86.41799362	    -14.08434642	    -14.78066825	     -3.81681903	     32.17394885	     87.80599144
      0.01666670	     -9.91136158	      1.09240453	    -13.12868788	     -0.04614043	      1.26676844	     -0.37181831	     11.07328211	      1.33585462	      1.79929583	      3.63186076	      0.06338793	      2.61338916	     -9.06884028	     -7.05880718	      9.69597319	     -1.03427505	     -1.80117965	      4.19134310	      0.07315274	      8.45055747	     -2.45572058	     -7.05880718	      2.53740212	      0.42880567	     -3.36057169	     -4.75370979	    -14.13286506	     11.06005271	     30.04428607	     88.38488399	    -15.36618915	    -13.93137054	     -8.15524014	     33.51381634	     90.08176128
      0.03333330	    -10.18353862	      1.30322242	    -12.66161699	     -0.04716484	      1.26720413	     -0.37238929	     11.13460684	      1.15130814	      0.40442683	      3.32486079	      0.05802977	      2.89189837	     -7.99481472	     -7.35151657	      9.97497996	     -0.83314063	     -1.47320514	      3.65601387	      0.06380948	      8.72551029	     -1.58371608	     -7.35151657	      2.37209051	      0.13545924	     -3.61431511	     -5.76898858	    -14.28094043	     10.21702552	     30.93414560	     90.31106084	    -15.42018600	    -13.72806593	    -10.85777995	     33.94641114	     93.25197627
      0.05000000	     -9.85382400	      1.46612899	    -12.53007194	     -0.04825955	      1.26644647	     -0.37298116	     11.03232067	      0.82171430	     -0.91957192	      3.76249858	      0.06566799	      3.62733679	     -7.20148711	     -7.37347617	      9.72324617	     -0.50947656	     -1.85025089	      3.63886450	      0.06351017	      9.19546246	     -1.23651947	     -7.37347617	      1.34059917	     -0.19672848	     -3.51655116	     -6.11198131	    -14.29603526	      9.83270819	     31.99496765	     88.19106043	    -15.59188781	    -13.82689159	    -11.34150311	     35.47634158	     91.06836814
      0.06666670	     -9.48145055	      1.66525204	    -12.64934851	     -0.04937859	      1.26736153	     -0.37372697	     11.05361005	      0.54667466	     -1.47619318	      4.56899443	      0.07974400	      4.63017615	     -6.88673382	     -7.38145278	      9.42225242	     -0.19642310	     -2.22070096	      3.84776776	      0.06715622	      9.81264280	     -0.79098573	     -7.38145278	      0.53342821	     -0.54457844	     -3.23372128	     -5.97671064	    -14.18288587	      9.79555335	     32.12080934	     87.59790039	    -15.48247261	    -13.82858247	    -11.84015106	     36.31987607	     90.42612364
      0.08333330	     -9.19437366	      1.81021006	    -12.86518261	     -0.05069693	      1.26743114	     -0.37392006	     11.17215449	      0.33930125	     -1.78164135	      5.39054145	      0.09408270	      5.30708679	     -6.47777272	     -7.41664120	      9.24904852	     -0.01508793	     -2.69141746	      4.14576823	      0.07235731	     10.34490062	     -0.15327937	     -7.41664120	     -0.10758532	     -0.84768278	     -3.90125556	     -4.71480782	    -14.18568245	     11.79377326	     31.14209168	     89.24677607	    -16.45912999	    -13.16443569	    -14.91761671	     38.09075254	     92.39374330
      0.10000000	     -8.98502710	      1.94254552	    -12.93856868	     -0.05118246	      1.26805544	     -0.37416035	     11.25570658	      0.15916097	     -1.76958129	      5.97497895	      0.10428306	      5.61768192	     -6.57627832	     -7.42309653	      9.07882963	      0.14160111	     -2.97249503	      4.24777025	      0.07413758	     10.60099521	      0.28880832	     -7.42309653	     -0.59005255	     -1.07364081	     -3.74509847	     -5.13415506	    -14.17480730	     11.48653149	     32.02757726	     88.35373674	    -16.62466092	    -13.24721771	    -15.13552906	     39.13089025	     91.76914656
      0.11666670	     -8.97226176	      2.18025471	    -13.04707075	     -0.05128982	      1.26441055	     -0.37384847	     11.56621443	     -0.05258357	     -1.45459307	      6.33763454	      0.11061259	      5.84659838	     -6.76856066	     -7.43230226	      9.17559447	      0.34863053	     -3.02693027	      4.32911904	      0.07555738	     10.81965490	      0.64989138	     -7.43230226	     -0.74523776	     -1.35253275	     -3.54770044	     -5.55197285	    -14.02540914	     11.07801771	     32.83748827	     86.43410585	    -16.88414371	    -13.40572561	    -14.97975385	     39.96117061	     90.23754553
      0.13333330	     -8.75588592	      2.25968826	    -13.04734708	     -0.05131008	      1.26838545	     -0.37386174	     11.47775043	     -0.18723533	     -1.38141071	      6.56729971	      0.11462100	      6.15230419	     -6.71813915	     -7.44208356	      8.97613896	      0.44637771	     -3.17133520	      4.37796673	      0.07640993	     10.78434343	      0.85105722	     -7.44208356	     -1.20839013	     -1.54792838	     -3.48623445	     -5.96867494	    -14.05111310	     11.01870826	     34.02194248	     84.68110163	    -17.16350627	    -13.50292520	    -14.97709691	     41.07013469	     88.48369405
      0.15000000	     -8.73793296	      2.34143111	    -13.04874334	     -0.05182604	      1.26818281	     -0.37365496	     11.51487106	     -0.25309087	     -1.24496433	      6.69626049	      0.11687179	      6.31332865	     -6.84361670	     -7.45666606	      8.97740482	      0.49733070	     -3.24219813	      4.39787485	      0.07675740	     10.81093468	      1.07532463	     -7.45666606	     -1.24757863	     -1.69848418	     -3.68788944	     -5.45069413	    -13.98690430	     11.90236551	     33.42930895	     87.61107878	    -17.37472108	    -13.48769037	    -15.56349486	     41.43767616	     93.16057533
      0.16666670	     -8.75614921	      2.44273959	    -13.04155069	     -0.05204567	      1.26861138	     -0.37370811	     11.59216421	     -0.34012760	     -1.18124792	      6.81921465	      0.11901775	      6.52285311	     -6.93105630	     -7.45977249	      8.98414056	      0.56272451	     -3.21376438	      4.35092053	      0.07593789	     10.74684994	      1.13674406	     -7.45977249	     -1.26381544	     -1.87412397	     -3.71432113	     -5.77116109	    -13.95332725	     11.64537832	     34.18616259	     86.57323346	    -17.61429807	    -13.51997303	    -15.67610454	     42.07665928	     92.18451709
      0.18333330	     -8.61291947	      2.46556863	    -12.94085258	     -0.05244696	      1.26829143	     -0.37357935	     11.42362770	     -0.41021612	     -1.04836674	      6.84890176	      0.11953589	      6.62619948	     -7.12538179	     -7.46724825	      8.84325427	      0.59115222	     -3.26270304	      4.35864452	      0.07607270	     10.75321708	      1.30755292	     -7.46724825	     -1.51754944	     -1.96396431	     -3.77325874	     -5.52096019	    -13.67953435	     11.37371648	     33.81146180	     85.90329481	    -17.45670310	    -13.59071637	    -15.46231388	     41.95589613	     92.03859589
      0.20000000	     -9.05928564	      2.55733755	    -12.78426188	     -0.05252076	      1.26462424	     -0.37394941	     11.99173261	     -0.43917384	     -1.27736799	      7.17120601	      0.12516116	      7.02784898	     -6.96725773	     -7.46954626	      9.35814074	      0.56323096	     -2.98218693	      4.52349982	      0.07894997	     10.96866831	      1.02745311	     -7.46954626	     -0.97686821	     -1.99712164	     -3.86520005	     -5.98211044	    -13.80596938	     11.31579859	     34.89093730	     84.81865016	    -17.58525813	    -13.56159510	    -15.39540921	     43.05092675	     90.84228996
      0.21666670	     -8.49593434	      2.46230495	    -12.75919326	     -0.05287860	      1.26551899	     -0.37367844	     11.28241708	     -0.46718459	     -1.01445961	      7.05591429	      0.12314894	      6.79127435	     -7.46708970	     -7.47885249	      8.63962232	      0.55682871	     -3.12088026	      4.40509757	      0.07688346	     10.74861882	      1.21197031	     -7.47885249	     -1.78867535	     -2.04731269	     -4.26993285	     -5.06961294	    -13.50217881	     11.33409690	     33.62019268	     88.64121538	    -17.23142652	    -13.45845884	    -16.11413174	     42.71307412	     96.07641544
      0.23333330	     -8.39187921	      2.45940639	    -12.70451429	     -0.05278736	      1.26615988	     -0.37384228	     11.16499014	     -0.50885915	     -1.00033476	      7.11763554	      0.12422618	      6.83340161	     -7.64635457	     -7.48084882	      8.48832574	      0.55212075	     -2.97888832	      4.41825368	      0.07711307	     10.82220940	      1.19647381	     -7.48084882	     -2.02743188	     -2.08071731	     -4.34121126	     -5.11535394	    -13.45289275	     11.15737751	     33.99810183	     87.45065182	    -17.12697051	    -13.43358866	    -15.96134390	     43.13970535	     94.91340973
      0.25000000	     -8.43171153	      2.49312229	    -12.67908450	     -0.05268081	      1.26906110	     -0.37345108	     11.21742205	     -0.53022715	     -0.98294465	      7.21924922	      0.12599967	      6.90697528	     -7.73445908	     -7.48391336	      8.57252251	      0.51868405	     -2.93237566	      4.51718941	      0.07883983	     10.81157930	      1.26248118	     -7.48391336	     -1.91114728	     -2.12760889	     -4.40377701	     -4.77518619	    -13.27496026	     11.32080468	     33.22962187	     86.80887497	    -16.80393857	    -13.51340500	    -15.41452031	     42.66322870	     94.47213292
      0.26666670	     -8.35254207	      2.47367731	    -12.58014498	     -0.05263086	      1.26958853	     -0.37372634	     11.09076700	     -0.55776469	     -0.91807801	      7.22259292	      0.12605803	      6.82658537	     -8.00852000	     -7.48421752	      8.40014612	      0.49085486	     -2.84961167	      4.48310821	      0.07824500	     10.67046414	      1.30962027	     -7.48421752	     -2.11261188	     -2.15463786	     -4.64170062	     -4.64943620	    -13.21373778	     11.26425578	     33.20485541	     86.91140278	    -16.69144924	    -13.50151831	    -15.34184234	     42.72213978	     95.05634449
      0.28333330	     -8.47154310	      2.51174692	    -12.47297711	     -0.05285301	      1.26916199	     -0.37360625	     11.19706226	     -0.59183968	     -0.91549696	      7.17820858	      0.12528337	      6.93435449	     -8.01298729	     -7.48717457	      8.46923525	      0.47878233	     -2.72688255	      4.47046756	      0.07802438	     10.56216909	      1.23351855	     -7.48717457	     -1.92784312	     -2.19998293	     -4.75461487	     -4.35466360	    -13.12937797	     11.65530375	     32.55628375	     86.66410085	    -16.47659162	    -13.55977953	    -14.85291166	     42.29790846	     94.47096289
      0.30000000	     -8.40269608	      2.50052505	    -12.40411183	     -0.05266472	      1.26966761	     -0.37378493	     11.13103214	     -0.61528620	     -0.89382150	      7.15467255	      0.12487259	      6.89795746	     -8.03048538	     -7.48766098	      8.32691431	      0.45914832	     -2.66265261	      4.46263720	      0.07788771	     10.46842267	      1.22498441	     -7.48766098	     -2.15163357	     -2.23783858	     -4.92137118	     -4.35600400	    -13.12785652	     11.57788342	     32.78776502	     86.59678198	    -16.47807539	    -13.52550898	    -14.88108199	     42.46982003	     94.45113260
